<?xml version="1.0" standalone="no"?>
<!DOCTYPE svg PUBLIC "-//W3C//DTD SVG 20010904//EN"
 "http://www.w3.org/TR/2001/REC-SVG-20010904/DTD/svg10.dtd">
<svg version="1.0" xmlns="http://www.w3.org/2000/svg"
 width="311.000000pt" height="311.000000pt" viewBox="0 0 311.000000 311.000000"
 preserveAspectRatio="xMidYMid meet">
<metadata>
Created by potrace 1.14, written by Peter Selinger 2001-2017
</metadata>
<g transform="translate(0.000000,311.000000) scale(0.100000,-0.100000)"
fill="#000000" stroke="none">
<path d="M1850 2849 c-406 -37 -749 -143 -1035 -322 -181 -113 -347 -267 -456
-424 -126 -183 -277 -618 -335 -969 -23 -137 -27 -478 -6 -537 24 -67 82 -73
108 -11 18 42 18 104 -1 224 -17 113 -19 170 -5 170 14 0 51 -40 100 -105 21
-28 70 -79 109 -114 131 -117 229 -258 275 -398 10 -28 26 -64 38 -78 17 -22
27 -26 67 -23 l46 3 2 108 c2 88 6 117 23 153 42 85 147 151 320 200 52 15
117 39 145 53 70 35 143 35 181 1 52 -48 73 -123 94 -330 14 -144 24 -170 61
-170 l29 0 -7 83 c-12 121 -8 294 6 354 26 107 72 128 157 70 27 -18 83 -46
124 -61 242 -93 334 -173 357 -311 l8 -50 53 -3 c67 -4 74 12 33 69 -18 25
-31 54 -31 72 0 107 177 241 515 393 88 39 188 81 223 94 l62 23 0 94 0 95
-27 -21 c-250 -192 -464 -271 -617 -227 -71 21 -129 71 -153 134 -48 125 4
371 150 715 49 113 134 241 334 502 167 218 233 276 233 208 0 -16 -9 -74 -20
-131 -24 -122 -24 -123 -7 -146 10 -13 20 -16 35 -12 22 7 22 9 22 276 l0 269
-84 26 c-182 56 -203 57 -631 60 -220 2 -443 -1 -495 -6z m498 -150 c56 -18
102 -35 102 -39 0 -4 -28 -29 -62 -57 -148 -120 -331 -333 -437 -508 -113
-186 -217 -458 -262 -683 l-23 -114 -70 -64 c-351 -320 -686 -347 -820 -65
-30 64 -31 70 -30 201 1 154 22 249 93 431 84 215 277 511 363 555 27 14 31
14 50 -3 11 -10 37 -52 58 -94 21 -42 55 -90 75 -107 31 -28 43 -32 94 -32 88
0 96 12 87 148 -8 130 4 195 48 259 58 84 175 148 359 195 110 27 244 20 375
-23z"/>
</g>
</svg>
